<?xml version="1.0" standalone="no"?>
<!DOCTYPE svg PUBLIC "-//W3C//DTD SVG 20010904//EN"
 "http://www.w3.org/TR/2001/REC-SVG-20010904/DTD/svg10.dtd">
<svg version="1.0" xmlns="http://www.w3.org/2000/svg"
 width="1280.000000pt" height="640.000000pt" viewBox="0 0 1280.000000 640.000000"
 preserveAspectRatio="xMidYMid meet">

<g transform="translate(0.000000,640.000000) scale(0.100000,-0.100000)"
fill="#000000" stroke="none">
<path d="M5376 5793 c-8 -64 -8 -143 2 -143 9 0 112 103 112 111 0 4 -24 22
-54 42 l-53 36 -7 -46z"/>
<path d="M4737 5738 c7 -46 15 -90 16 -98 2 -8 25 18 51 58 27 40 47 74 45 76
-6 6 -108 46 -118 46 -4 0 -2 -37 6 -82z"/>
<path d="M9105 5759 c-206 -26 -386 -108 -635 -290 -48 -36 -245 -156 -308
-188 -12 -7 -21 -19 -20 -28 2 -12 -13 -20 -61 -31 l-64 -16 54 -48 c30 -26
57 -48 61 -48 4 0 10 22 14 49 11 83 16 83 91 8 l68 -67 6 -158 c3 -86 5 -158
5 -159 -1 -1 -34 28 -74 64 l-73 65 -62 -53 c-34 -29 -66 -57 -72 -62 -9 -9
59 -3 111 10 20 4 22 0 29 -67 4 -39 5 -73 2 -76 -2 -3 -36 22 -75 55 -38 34
-72 61 -73 61 -2 0 -2 -32 -1 -71 l4 -71 74 7 74 7 0 -93 c1 -52 7 -122 14
-156 7 -34 11 -65 8 -68 -3 -3 -31 -5 -63 -5 -32 0 -60 -4 -63 -8 -3 -5 19
-29 48 -54 l52 -46 87 5 86 6 -20 -79 c-18 -67 -19 -88 -10 -153 9 -74 4 -241
-8 -241 -3 1 -34 26 -67 58 -62 57 -62 58 -86 157 -24 99 -24 100 -6 160 26
88 28 85 -58 85 l-77 0 6 -75 7 -75 -53 0 c-82 0 -84 -7 -29 -81 39 -51 52
-79 66 -138 9 -41 13 -78 9 -82 -5 -3 -42 -14 -83 -24 -41 -10 -79 -20 -83
-22 -5 -3 20 -25 55 -50 35 -25 67 -49 72 -54 5 -5 -9 -16 -34 -27 -42 -18
-44 -18 -138 5 -52 13 -96 22 -97 21 -2 -2 2 -30 9 -63 10 -52 15 -60 34 -59
12 0 47 1 77 2 30 1 55 6 55 11 0 5 5 22 10 37 l11 27 38 -37 38 -38 7 59 c4
32 14 93 23 136 l16 77 56 0 57 0 68 -69 69 -70 13 -88 c13 -85 9 -187 -6
-181 -14 5 -132 99 -128 102 1 2 33 0 70 -3 36 -4 64 -3 62 1 -7 10 -147 108
-151 105 -1 -2 3 -68 9 -148 15 -193 11 -211 -53 -248 -45 -26 -57 -28 -122
-24 l-72 5 60 -44 60 -43 -62 -3 c-35 -2 -63 -6 -63 -10 0 -4 29 -36 64 -71
l64 -63 5 58 c3 33 6 79 7 103 0 25 3 48 6 53 3 4 30 -8 61 -28 30 -19 57 -33
60 -30 3 2 1 32 -5 65 l-9 60 76 3 76 3 -67 45 c-37 25 -68 48 -68 51 0 6 109
49 123 49 3 0 8 -34 12 -76 l8 -76 -69 -70 -69 -69 78 3 c42 2 77 2 77 0 0 -2
-25 -32 -56 -67 -31 -35 -56 -67 -56 -72 1 -4 19 -12 42 -18 l40 -10 -56 -83
c-30 -46 -54 -85 -52 -87 2 -1 30 -6 62 -11 l60 -9 18 -60 c10 -33 18 -63 18
-67 0 -5 -36 -8 -81 -8 l-81 0 47 -55 47 -55 -53 -72 c-29 -40 -85 -107 -124
-148 l-72 -75 6 -70 6 -70 63 -13 62 -14 1 -46 c1 -26 4 -57 8 -70 6 -22 10
-19 62 40 84 95 83 92 0 84 -39 -4 -71 -3 -71 1 0 5 10 38 22 73 l21 64 29
-35 c77 -90 77 -88 79 -181 1 -48 6 -112 11 -144 5 -31 7 -91 6 -132 l-3 -74
-78 62 -78 63 52 46 c29 25 62 53 73 62 19 16 19 16 -5 22 -32 8 -173 25 -229
29 l-45 3 -55 -73 -55 -72 -154 0 -153 0 -77 -64 -78 -65 -21 51 c-12 29 -20
53 -19 54 2 2 43 8 91 13 49 6 91 13 93 15 3 3 -3 27 -12 53 -10 27 -21 92
-24 148 l-6 100 -39 -72 -39 -72 -66 -11 c-159 -26 -153 -33 -46 51 l69 54
-82 3 -82 3 0 82 -1 82 -53 -57 c-53 -56 -54 -58 -61 -133 -4 -43 -13 -79 -19
-81 -7 -3 -42 2 -79 10 -37 7 -69 11 -71 7 -2 -3 -1 -35 3 -70 l6 -64 100 76
c55 42 117 91 138 108 l37 31 0 -64 c0 -63 0 -64 -50 -113 -27 -27 -50 -52
-50 -55 0 -3 25 -14 56 -25 63 -21 62 -20 79 -86 l13 -50 -59 7 c-32 4 -59 3
-59 -1 0 -11 64 -115 71 -115 3 0 15 24 26 53 l20 52 63 8 c34 4 65 5 68 2 6
-6 -13 -174 -21 -182 -3 -3 -39 9 -80 26 -73 30 -76 30 -123 16 -26 -8 -49
-13 -50 -12 -1 1 1 36 6 77 5 41 6 77 4 79 -6 6 -144 -21 -149 -30 -3 -4 24
-32 60 -64 36 -31 65 -60 65 -64 0 -4 -34 -15 -76 -25 -63 -15 -85 -26 -137
-69 -33 -28 -56 -52 -51 -54 5 -2 32 3 59 11 27 9 51 13 53 11 3 -2 1 -46 -4
-97 l-9 -93 -55 72 c-30 40 -59 72 -64 72 -12 1 1 -248 14 -264 6 -7 27 -15
48 -18 20 -4 51 -9 69 -13 l32 -6 -19 68 c-11 38 -20 71 -20 73 0 2 27 -21 59
-52 l60 -57 69 0 70 0 77 -62 77 -63 -60 -15 c-34 -8 -63 -17 -65 -20 -6 -6 9
-149 16 -156 3 -3 33 2 68 11 47 13 83 15 146 10 l83 -7 -6 -34 c-6 -34 -6
-34 32 -34 22 0 63 -3 92 -6 l52 -7 0 29 1 29 22 -27 c15 -18 32 -28 50 -28
28 0 28 1 21 48 -3 26 -8 49 -11 51 -2 3 -22 -4 -46 -16 -35 -17 -52 -19 -102
-12 -33 4 -70 8 -83 8 -20 1 -16 9 39 76 34 41 64 75 68 75 3 0 34 -28 68 -62
l63 -62 0 68 c0 66 1 68 23 62 12 -3 52 -11 90 -17 37 -7 67 -15 67 -18 0 -3
-42 -25 -92 -49 l-92 -42 50 -51 49 -51 72 5 c41 3 82 12 96 22 14 9 53 23 87
31 65 15 148 63 191 110 15 16 46 63 69 104 56 100 95 145 361 415 220 223
311 333 408 490 80 129 305 465 311 465 4 0 14 -27 24 -61 36 -132 134 -294
250 -417 158 -167 282 -246 689 -437 298 -140 432 -213 482 -263 37 -37 67
-125 95 -284 26 -152 31 -163 82 -190 42 -23 48 -23 348 -22 168 1 438 1 601
2 252 1 297 3 308 16 7 8 10 20 7 25 -4 6 10 9 35 8 38 -2 43 1 52 28 13 40
12 40 52 21 20 -10 52 -20 71 -23 33 -5 36 -4 32 18 -3 21 1 24 24 21 18 -2
30 3 37 17 26 47 8 64 -93 90 -33 9 -61 22 -64 29 -3 9 12 7 50 -8 72 -27 98
-25 136 9 53 49 43 68 -49 95 -30 8 -73 28 -95 42 -21 15 -59 34 -84 42 -25 9
-70 30 -100 49 -30 18 -83 42 -116 53 -34 12 -110 50 -170 85 -59 36 -144 77
-189 91 -158 52 -371 184 -562 348 -137 119 -232 227 -433 491 -228 299 -441
558 -594 722 -56 59 -58 64 -50 95 7 23 6 48 -3 83 -8 28 -15 102 -18 166 -4
108 -3 118 17 135 26 24 88 117 88 133 0 6 -4 19 -10 29 -16 30 -47 106 -54
133 -3 15 -40 97 -82 183 -63 129 -84 163 -124 199 l-49 44 15 58 c10 38 14
93 12 164 -1 58 1 126 4 151 25 177 16 415 -19 527 -10 31 -31 69 -46 85 -31
30 -46 78 -47 140 0 26 -7 42 -23 55 -21 16 -23 26 -23 99 1 93 -12 121 -64
138 -22 7 -40 23 -53 46 -10 19 -28 46 -39 60 -10 14 -35 46 -54 72 -31 41
-44 50 -92 63 -32 9 -77 22 -102 30 -31 9 -92 13 -195 13 -82 -1 -159 1 -170
4 -11 3 -51 1 -90 -3z m-787 -1356 c21 -47 40 -163 27 -163 -17 0 -134 94
-128 104 17 31 69 106 74 106 3 0 15 -21 27 -47z m-188 -336 c0 -1 -30 -32
-66 -67 -73 -71 -71 -72 -43 33 10 36 10 37 59 37 28 0 50 -1 50 -3z m-765
-2369 c-70 -12 -72 -11 -79 35 -4 23 -9 58 -12 77 l-5 35 67 -70 68 -70 -39
-7z m553 -128 c4 0 25 5 47 10 33 8 57 5 138 -17 53 -14 97 -29 97 -32 0 -3
-36 -26 -80 -50 l-80 -44 0 -82 0 -81 55 -54 c30 -29 52 -57 49 -62 -3 -4 -24
-18 -46 -29 l-41 -21 -68 68 c-38 38 -69 71 -69 75 0 4 25 10 55 14 30 3 55
10 55 14 0 4 -29 33 -65 65 -58 51 -76 61 -152 82 -47 13 -87 25 -89 27 -2 2
2 32 8 66 12 63 13 64 92 128 l81 66 3 -72 c2 -39 6 -71 10 -71z m-311 4 c20
-4 21 -8 16 -62 -7 -68 -46 -171 -114 -303 -28 -52 -56 -119 -62 -148 -7 -29
-16 -52 -20 -52 -5 0 -31 35 -58 78 l-49 78 75 72 c66 63 80 72 118 75 l42 3
-57 35 c-32 19 -58 38 -58 41 0 3 35 16 78 29 42 12 81 26 85 30 4 3 -26 35
-68 70 -41 34 -75 65 -75 67 0 4 110 -5 147 -13z m109 -161 c-3 -21 -6 -62 -6
-90 0 -29 -3 -53 -7 -53 -6 0 -55 104 -81 171 -2 5 20 9 48 9 l53 0 -7 -37z
m-610 -130 c-1 -2 -24 4 -49 13 -44 15 -47 18 -47 52 l0 36 50 -49 c27 -27 48
-50 46 -52z m1244 -51 c0 -55 -15 -198 -26 -250 -4 -21 -15 -11 -86 78 -44 55
-78 103 -76 105 13 13 174 124 181 125 4 0 7 -26 7 -58z m-1026 -9 c-3 -27 -8
-49 -9 -51 -2 -2 -28 -2 -59 0 l-56 3 58 47 c31 26 61 47 65 47 5 1 5 -20 1
-46z m555 -136 c18 -104 19 -104 -59 -43 -39 30 -71 59 -70 63 0 8 83 41 106
42 7 1 17 -27 23 -62z m-156 -236 c-4 -7 -93 21 -93 30 0 4 19 24 43 44 l42
36 5 -53 c3 -29 4 -55 3 -57z m614 40 c6 -30 9 -59 7 -63 -3 -4 -50 -8 -104
-8 l-99 0 -3 -80 -3 -79 -42 19 -43 19 0 57 c0 49 6 66 43 125 l42 69 95 -3
95 -2 12 -54z m-722 -93 c-4 -46 -10 -86 -14 -90 -6 -7 -173 134 -179 152 -2
5 37 11 90 13 51 1 97 4 101 5 5 1 5 -35 2 -80z"/>
<path d="M4120 5616 c-30 -12 -54 -26 -54 -30 2 -9 135 -118 140 -114 5 5 -20
168 -25 168 -3 -1 -31 -11 -61 -24z"/>
<path d="M5196 5398 c-3 -50 -5 -92 -4 -94 2 -1 32 24 67 55 l65 58 -55 36
c-29 21 -56 37 -60 37 -3 0 -9 -41 -13 -92z"/>
<path d="M6183 5377 c4 -17 9 -60 13 -94 4 -35 9 -63 13 -63 3 1 27 30 54 65
l47 64 -27 15 c-16 7 -45 21 -67 30 l-38 16 5 -33z"/>
<path d="M5036 5255 l7 -95 -47 14 c-45 14 -46 13 -46 -7 1 -12 9 -56 18 -97
l18 -75 44 73 c33 56 40 76 30 82 -9 6 1 24 39 71 28 35 51 66 51 69 0 6 -105
60 -116 60 -3 0 -2 -43 2 -95z"/>
<path d="M5896 5178 c-3 -50 -5 -92 -4 -94 2 -1 32 24 67 56 l63 58 -53 36
c-30 20 -56 36 -60 36 -3 0 -9 -41 -13 -92z"/>
<path d="M2356 5149 c-15 -34 -25 -63 -24 -64 4 -4 179 23 185 28 3 4 -122 97
-131 97 -2 0 -15 -28 -30 -61z"/>
<path d="M7979 5196 c-2 -2 -39 -6 -83 -8 l-79 -4 -25 -65 c-14 -35 -27 -66
-28 -68 -2 -2 -35 8 -73 22 l-70 26 -11 -42 c-6 -23 -18 -68 -27 -99 -15 -56
-15 -60 7 -118 12 -33 25 -62 29 -64 3 -2 35 22 71 55 l65 58 -70 1 c-118 2
-119 7 -18 84 l88 68 3 -116 c2 -98 5 -116 20 -120 9 -3 69 -8 132 -12 l114
-7 -15 24 c-8 13 -32 52 -53 86 l-37 62 -70 -30 c-39 -17 -73 -28 -75 -26 -5
5 99 139 179 230 33 37 53 67 45 67 -8 0 -17 -2 -19 -4z"/>
<path d="M4437 5146 c-26 -18 -50 -36 -53 -39 -3 -3 31 -24 76 -47 45 -23 83
-40 85 -38 5 4 -49 158 -55 157 -3 0 -27 -15 -53 -33z"/>
<path d="M3088 5065 c-10 -45 -12 -64 -4 -61 6 2 48 14 94 27 45 13 82 26 82
29 -1 5 -140 70 -151 70 -3 0 -12 -29 -21 -65z"/>
<path d="M7586 5111 c-4 -5 -2 -12 3 -15 5 -4 12 -2 15 3 4 5 2 12 -3 15 -5 4
-12 2 -15 -3z"/>
<path d="M8091 5034 c-23 -37 -38 -70 -34 -74 12 -11 103 -44 107 -39 4 4 -23
171 -28 177 -2 1 -22 -27 -45 -64z"/>
<path d="M6470 5061 c0 -7 41 -130 55 -164 6 -14 16 -1 42 58 19 42 32 79 29
82 -9 9 -126 31 -126 24z"/>
<path d="M5501 4949 c-7 -50 -11 -92 -9 -94 1 -2 32 20 67 48 l65 50 -50 43
c-27 24 -52 44 -55 44 -3 0 -11 -41 -18 -91z"/>
<path d="M3875 4920 c-10 -33 -16 -62 -14 -64 6 -6 179 37 179 44 0 5 -134 80
-143 80 -2 0 -12 -27 -22 -60z"/>
<path d="M4398 4925 l-38 -53 38 -6 c118 -18 155 -19 147 -5 -13 21 -99 119
-105 118 -3 0 -22 -24 -42 -54z"/>
<path d="M3466 4921 c-17 -90 -18 -114 -5 -109 8 3 46 18 84 33 39 16 73 31
78 35 4 3 -29 20 -72 37 l-80 30 -5 -26z"/>
<path d="M6006 4788 c3 -35 9 -80 13 -101 l6 -38 53 71 53 71 -38 15 c-21 9
-51 23 -66 31 l-28 14 7 -63z"/>
<path d="M7675 4783 l-50 -15 39 -33 c21 -18 52 -40 67 -49 l29 -17 0 65 c0
75 0 75 -85 49z"/>
<path d="M3705 4709 c-4 -33 -5 -62 -2 -65 6 -6 167 67 167 76 0 6 -136 50
-153 50 -3 0 -8 -27 -12 -61z"/>
<path d="M7430 4705 c0 -36 -4 -65 -10 -65 -5 0 -41 5 -80 12 l-70 12 -50 -49
c-28 -27 -50 -57 -50 -67 0 -10 -6 -18 -14 -18 -8 0 -47 -38 -88 -83 -99 -114
-105 -121 -101 -134 2 -6 -5 -14 -17 -18 -11 -4 -33 -25 -48 -47 l-27 -41 66
-61 c64 -59 83 -69 200 -102 11 -3 34 16 69 61 l52 65 56 0 c69 1 172 14 229
29 l41 11 -5 143 c-3 78 -7 143 -8 145 -1 1 -31 -4 -66 -12 -35 -9 -64 -14
-65 -13 -5 8 -12 157 -7 157 3 0 36 -28 71 -62 72 -69 80 -67 81 14 1 32 8 77
27 166 4 22 3 22 -91 22 l-95 0 0 -65z m-125 -77 c-2 -13 -6 -43 -7 -68 l-3
-45 72 -23 72 -23 5 -52 c13 -125 17 -227 9 -227 -4 1 -33 37 -63 81 l-54 80
-76 -7 c-41 -3 -77 -8 -78 -10 -2 -1 14 -38 37 -80 22 -43 39 -79 38 -80 -1
-1 -32 3 -70 8 -63 10 -71 14 -134 73 l-68 62 60 7 c139 15 128 9 188 101 l56
83 -31 6 c-17 3 -42 6 -56 6 -24 0 -21 4 34 64 65 70 77 77 69 44z"/>
<path d="M7750 4603 c-6 -32 -14 -69 -17 -82 l-6 -24 95 6 95 5 -26 -85 -25
-85 -31 34 c-16 18 -47 53 -67 77 l-38 45 0 -93 0 -93 33 6 c112 24 114 30
-28 -113 l-131 -131 -64 0 c-65 0 -228 -27 -243 -39 -16 -15 141 -111 225
-137 45 -14 84 -27 86 -28 1 -2 -7 -29 -18 -61 -11 -32 -20 -62 -20 -66 0 -10
125 -109 139 -109 14 0 130 82 131 93 0 4 -18 43 -40 86 l-39 79 49 12 c28 7
50 15 49 18 -1 12 -140 113 -148 107 -5 -2 -28 -37 -52 -77 l-44 -73 -6 50
c-8 54 -11 145 -6 145 2 0 25 -7 51 -16 57 -19 65 -13 67 51 2 89 6 90 88 24
83 -67 86 -66 97 18 6 47 -2 84 -34 172 -4 11 13 13 93 9 l97 -4 -6 50 c-3 28
-6 72 -6 99 l0 47 -67 -2 c-61 -3 -68 -1 -71 17 -9 61 -13 65 -79 95 -36 16
-67 30 -69 30 -1 0 -8 -26 -14 -57z"/>
<path d="M3140 4549 c0 -38 3 -69 8 -69 4 0 27 14 52 30 25 16 48 30 53 30 4
0 7 -20 7 -45 0 -25 4 -45 9 -45 6 0 44 22 86 49 81 52 81 52 5 66 -19 3 -44
10 -55 15 -11 5 -53 15 -92 23 l-73 14 0 -68z"/>
<path d="M4742 4460 c-29 -34 -39 -52 -30 -55 16 -6 156 -35 168 -35 9 0 -81
139 -90 140 -3 0 -24 -23 -48 -50z"/>
<path d="M5290 4508 c0 -2 18 -44 39 -93 23 -51 42 -83 45 -75 3 8 16 45 30
82 14 37 22 69 18 71 -10 6 -132 19 -132 15z"/>
<path d="M5892 4369 c17 -50 34 -87 39 -82 4 4 21 38 38 75 l30 68 -37 9 c-20
5 -51 11 -69 15 l-31 5 30 -90z"/>
<path d="M4378 4325 c-18 -77 -22 -75 94 -39 l83 26 -75 39 c-41 21 -78 38
-81 39 -3 0 -12 -29 -21 -65z"/>
<path d="M5057 4362 l-58 -27 77 -57 c43 -32 79 -57 80 -55 1 1 -2 25 -7 52
-5 28 -11 65 -14 83 -3 17 -9 32 -13 31 -4 0 -33 -13 -65 -27z"/>
<path d="M2324 4364 c3 -9 6 -40 6 -69 l0 -54 72 45 c39 24 76 48 80 52 5 5
-25 16 -67 25 -93 21 -99 21 -91 1z"/>
<path d="M6011 4299 c17 -41 34 -83 38 -93 6 -16 14 -3 38 60 21 55 27 81 19
86 -6 3 -37 9 -68 13 l-58 7 31 -73z"/>
<path d="M4210 4125 c0 -74 -6 -74 112 -14 l63 32 -69 23 c-105 36 -106 36
-106 -41z"/>
<path d="M5522 4128 c8 -13 32 -52 53 -88 l40 -65 11 51 c6 29 14 68 18 88 l7
36 -72 0 -71 0 14 -22z"/>
<path d="M2995 4018 c4 -35 9 -65 10 -66 2 -2 38 23 81 55 l78 58 -50 7 c-27
3 -66 7 -87 7 l-39 1 7 -62z"/>
<path d="M6949 4019 c-77 -89 -77 -85 -17 -104 29 -10 57 -21 61 -25 5 -4 -27
-29 -70 -56 l-78 -49 79 -3 c43 -2 80 -1 82 1 3 2 3 71 2 152 l-3 148 -56 -64z"/>
<path d="M4852 4014 c-24 -31 -42 -57 -40 -58 5 -5 183 -23 187 -20 2 2 -18
29 -44 61 -27 32 -51 61 -54 65 -4 4 -26 -18 -49 -48z"/>
<path d="M4613 3998 c-13 -34 -22 -63 -20 -64 2 -2 46 5 98 14 l94 18 -72 47
c-39 26 -73 47 -75 47 -2 0 -13 -28 -25 -62z"/>
<path d="M2030 3978 c0 -84 6 -86 95 -29 86 55 87 48 -15 71 -79 17 -80 16
-80 -42z"/>
<path d="M7141 3948 c-10 -67 -10 -90 1 -120 7 -20 18 -37 23 -36 12 1 135
133 135 144 0 9 -102 78 -131 89 -13 5 -18 -8 -28 -77z"/>
<path d="M6773 3977 c-29 -18 -53 -35 -53 -39 0 -5 34 -8 75 -8 41 0 75 4 75
9 0 12 -34 71 -40 70 -3 0 -29 -15 -57 -32z"/>
<path d="M2410 3935 c3 -36 7 -66 10 -68 3 -1 39 23 80 53 l75 54 -34 7 c-19
4 -57 10 -85 13 l-51 7 5 -66z"/>
<path d="M5637 3888 c11 -18 32 -54 47 -80 l28 -48 -36 0 c-20 0 -36 -3 -36
-6 0 -3 21 -41 47 -85 l48 -79 11 47 c7 27 15 62 19 78 l7 30 19 -37 c11 -21
23 -38 28 -38 5 0 14 26 20 58 6 31 14 67 17 80 6 21 4 22 -55 22 l-61 0 6 28
c3 15 8 35 11 45 4 15 -4 17 -67 17 l-72 0 19 -32z m113 -108 c9 -16 8 -20 -5
-20 -8 0 -15 9 -15 20 0 11 2 20 5 20 2 0 9 -9 15 -20z"/>
<path d="M6707 3913 c-4 -3 -7 -37 -7 -75 0 -67 -1 -68 -23 -63 -22 6 -25 1
-47 -80 -25 -93 -22 -104 25 -105 11 0 31 -3 44 -7 20 -5 15 -10 -45 -42 -37
-20 -69 -41 -71 -47 -3 -10 155 -49 164 -41 2 2 -1 28 -7 57 -6 29 -8 55 -6
57 5 5 145 -80 146 -88 0 -4 -27 -12 -60 -18 -33 -7 -59 -15 -59 -19 1 -4 29
-33 63 -64 l63 -58 62 73 62 72 -55 3 c-31 2 -56 6 -56 9 0 4 20 39 45 78 l45
73 57 4 c32 3 60 4 62 2 2 -1 -18 -38 -44 -80 l-47 -77 7 -84 c8 -91 6 -88 77
-77 26 5 40 13 44 27 3 11 13 36 21 55 l14 34 44 -63 c24 -35 42 -65 40 -67
-1 -2 -29 1 -61 7 -70 13 -74 9 -74 -71 0 -62 0 -62 -75 -72 -40 -6 -40 -5
-99 69 -33 41 -62 75 -66 75 -4 0 -13 -34 -19 -75 -11 -65 -10 -87 4 -154 17
-76 20 -81 86 -147 l69 -68 0 -73 c0 -84 8 -80 -115 -62 -42 6 -78 9 -81 6 -3
-2 8 -27 24 -53 40 -67 47 -163 22 -299 -10 -55 -17 -101 -16 -103 2 -1 36 27
76 63 l74 66 65 -70 66 -69 80 6 79 7 16 65 16 65 72 40 c39 22 97 64 129 93
l58 53 -35 -5 c-19 -3 -59 -8 -89 -12 l-53 -7 3 68 4 68 -70 18 c-38 10 -71
16 -74 14 -2 -3 2 -45 8 -95 l12 -91 -30 -37 c-16 -20 -45 -52 -65 -71 -41
-39 -38 -43 -64 78 l-18 85 -26 -45 c-14 -24 -37 -68 -52 -96 -14 -29 -29 -53
-31 -53 -3 0 -5 45 -5 100 l0 99 57 3 58 3 11 68 c6 37 13 70 16 73 3 3 32 1
64 -5 l58 -11 93 73 c51 39 126 93 166 119 l72 47 3 -37 3 -38 75 -13 c42 -7
78 -11 80 -8 2 2 -8 37 -22 78 -24 68 -26 87 -26 230 l0 156 -54 62 -54 62 0
-84 0 -84 -77 18 c-43 10 -80 18 -82 19 -2 0 0 -45 3 -99 6 -78 4 -112 -9
-158 -16 -57 -16 -61 4 -113 12 -30 21 -58 21 -62 0 -4 -39 15 -86 43 l-87 51
-70 -7 -71 -7 73 81 72 80 75 3 75 3 -86 64 c-47 35 -84 65 -82 67 2 2 38 15
80 28 63 20 92 37 157 91 44 37 80 71 80 76 0 17 -32 89 -40 89 -4 0 -32 -26
-61 -57 l-54 -58 -62 9 c-35 5 -63 13 -63 18 0 4 21 40 46 78 l47 70 -49 52
c-52 57 -64 62 -146 73 l-53 6 70 -65 70 -65 -92 -1 c-51 0 -93 4 -93 8 0 5 9
34 19 65 23 65 21 67 -68 67 l-57 0 -58 -71 c-32 -39 -62 -67 -66 -62 -4 4
-17 35 -30 68 -14 34 -49 91 -83 133 -33 39 -61 72 -62 72 -1 0 -5 -3 -8 -7z
m957 -683 c21 -34 36 -63 34 -66 -3 -2 -26 4 -52 13 -39 15 -46 21 -42 38 3
11 6 35 6 53 0 42 8 37 54 -38z m-519 -169 c4 -34 5 -61 3 -61 -2 0 -27 7 -56
15 l-51 15 42 70 c47 79 48 78 62 -39z m63 -211 c-33 -44 -55 -65 -59 -57 -3
6 -9 38 -13 70 l-6 57 65 0 65 0 -52 -70z"/>
<path d="M7371 3834 c-29 -41 -51 -77 -49 -79 8 -9 138 30 138 41 0 26 -22
114 -28 114 -4 0 -31 -34 -61 -76z"/>
<path d="M3546 3848 c11 -85 12 -86 95 -21 l74 58 -50 7 c-27 3 -67 7 -88 7
l-38 1 7 -52z"/>
<path d="M5278 3866 c-31 -12 -56 -25 -56 -31 0 -12 128 -119 134 -112 4 3
-15 161 -19 163 -1 0 -27 -9 -59 -20z"/>
<path d="M6112 3749 c54 -86 60 -87 72 -14 4 22 9 52 12 68 l6 27 -71 0 -71 0
52 -81z"/>
<path d="M4677 3733 c-3 -5 -15 -32 -26 -61 -15 -37 -17 -52 -8 -52 32 0 177
24 177 29 0 5 -112 81 -131 89 -4 2 -10 -1 -12 -5z"/>
<path d="M5068 3684 c-27 -20 -48 -39 -48 -42 0 -9 162 -73 169 -67 5 6 -60
145 -68 145 -3 0 -27 -17 -53 -36z"/>
<path d="M2227 3629 c3 -35 7 -66 9 -67 1 -2 37 20 79 49 86 60 85 63 -29 75
l-64 7 5 -64z"/>
<path d="M4180 3599 c0 -38 3 -68 8 -66 83 46 152 90 149 94 -4 3 -142 42
-154 43 -2 0 -3 -32 -3 -71z"/>
<path d="M4806 3594 c-21 -31 -36 -57 -34 -59 2 -1 46 -6 98 -10 l94 -7 -48
54 c-27 29 -54 59 -61 66 -9 10 -19 1 -49 -44z"/>
<path d="M3225 3562 c13 -102 6 -99 91 -35 86 65 87 64 -34 76 l-63 7 6 -48z"/>
<path d="M1490 3505 c0 -36 3 -65 6 -65 12 0 154 92 154 100 0 6 -118 30 -149
30 -7 0 -11 -26 -11 -65z"/>
<path d="M6118 3553 c-32 -2 -58 -7 -58 -10 0 -10 94 -153 101 -153 4 0 9 19
12 43 3 23 9 61 13 85 3 23 3 41 -2 40 -5 -1 -35 -3 -66 -5z"/>
<path d="M4226 3489 c-4 -34 -5 -63 -2 -66 2 -2 14 1 27 7 22 12 22 12 16 -34
-4 -25 -5 -46 -3 -46 2 0 43 19 92 42 l89 41 -40 14 c-74 25 -72 23 -42 39 15
8 27 17 27 19 0 5 -132 45 -147 45 -6 0 -14 -27 -17 -61z"/>
<path d="M5197 3495 l-59 -32 82 -51 c44 -29 82 -52 84 -52 5 0 -36 154 -43
161 -3 3 -32 -9 -64 -26z"/>
<path d="M5435 3505 c-28 -6 -56 -14 -63 -16 -7 -2 18 -34 58 -74 l70 -69 0
87 c0 48 -3 87 -7 86 -5 -1 -31 -7 -58 -14z"/>
<path d="M7896 3443 c12 -102 16 -103 57 -25 37 70 37 70 14 76 -12 3 -35 6
-50 6 l-28 0 7 -57z"/>
<path d="M6566 3418 c-4 -24 -10 -54 -13 -67 -6 -24 -5 -24 48 -17 87 12 89
16 34 75 -26 28 -51 51 -55 51 -4 0 -10 -19 -14 -42z"/>
<path d="M5363 3361 c-29 -9 -55 -19 -58 -23 -3 -3 24 -33 61 -67 37 -34 69
-60 71 -57 6 6 -9 166 -16 165 -3 -1 -29 -9 -58 -18z"/>
<path d="M2790 3298 c0 -36 3 -67 6 -71 7 -6 154 93 154 104 0 4 -26 10 -57
14 -32 3 -68 9 -80 12 -22 5 -23 2 -23 -59z"/>
<path d="M7730 3352 c0 -5 32 -42 128 -151 l38 -45 39 65 c21 35 47 78 57 96
l19 32 -63 -5 c-35 -3 -98 -1 -140 3 -43 5 -78 7 -78 5z"/>
<path d="M3818 3245 c2 -36 5 -65 7 -65 8 0 156 92 153 95 -4 5 -137 35 -151
35 -8 0 -11 -20 -9 -65z"/>
<path d="M2514 3224 l6 -45 -48 6 c-26 3 -59 9 -74 11 -28 5 -28 5 -27 -43 1
-26 4 -58 7 -70 7 -20 10 -19 75 28 37 27 67 44 67 38 0 -16 17 -8 95 47 l70
49 -65 12 c-36 7 -76 12 -89 13 -22 0 -23 -2 -17 -46z"/>
<path d="M5537 3204 c-32 -6 -60 -14 -63 -17 -4 -3 22 -38 57 -76 l64 -71 3
45 c2 25 2 64 0 88 l-3 43 -58 -12z"/>
<path d="M6642 3200 c-34 -4 -65 -10 -68 -13 -6 -5 113 -147 123 -147 6 0 153
112 153 116 0 8 -113 54 -129 53 -9 -1 -44 -5 -79 -9z"/>
<path d="M6520 3158 c0 -17 1 -29 3 -27 2 2 11 16 20 32 17 26 17 27 -3 27
-16 0 -20 -7 -20 -32z"/>
<path d="M3550 3095 c0 -36 2 -65 5 -65 3 0 43 21 87 47 l82 47 -70 18 c-107
27 -104 28 -104 -47z"/>
<path d="M7801 3151 l-74 -6 81 -43 81 -43 7 24 c7 32 2 70 -11 72 -5 1 -43
-1 -84 -4z"/>
<path d="M3778 3085 c-1 -36 0 -65 5 -65 4 0 44 19 90 42 l82 41 -75 24 c-41
12 -80 23 -87 23 -7 0 -13 -24 -15 -65z"/>
<path d="M4852 3093 c-23 -26 -40 -48 -39 -50 4 -4 181 -42 184 -39 4 4 -87
131 -96 134 -5 2 -27 -19 -49 -45z"/>
<path d="M5712 3123 c-18 -3 -32 -8 -30 -13 2 -5 28 -41 58 -80 l55 -71 7 43
c3 24 7 62 7 86 1 41 0 42 -31 40 -18 0 -48 -3 -66 -5z"/>
<path d="M2014 3073 c3 -10 8 -39 12 -65 3 -27 8 -48 11 -48 2 0 36 26 74 57
47 39 65 59 56 65 -6 4 -45 8 -85 8 -65 0 -73 -2 -68 -17z"/>
<path d="M4622 3033 c-18 -30 -31 -57 -30 -58 2 -2 45 -5 95 -6 l92 -4 -61 63
c-35 34 -63 62 -63 62 0 0 -15 -26 -33 -57z"/>
<path d="M8099 2980 c-48 -53 -76 -75 -114 -89 -27 -11 -58 -22 -67 -26 -16
-7 -18 1 -18 84 0 50 -4 91 -9 91 -10 0 -111 -136 -111 -149 0 -5 22 -12 48
-16 74 -10 76 -13 69 -94 -3 -41 -2 -71 3 -71 30 0 142 68 208 126 43 37 81
71 85 74 10 8 -13 140 -24 140 -4 0 -36 -32 -70 -70z"/>
<path d="M6690 2965 l0 -67 -42 54 c-23 29 -45 55 -49 58 -4 3 -28 4 -53 2
-58 -5 -61 -28 -11 -66 l35 -27 -40 -56 c-40 -56 -40 -57 -40 -146 0 -70 4
-95 17 -109 14 -16 14 -18 1 -18 -22 0 -29 -23 -35 -117 -4 -58 -2 -87 7 -97
6 -9 10 -34 8 -58 -3 -48 7 -55 68 -44 l33 7 3 65 3 66 53 -67 c30 -36 56 -64
59 -61 7 7 44 188 40 193 -2 1 -32 -8 -67 -22 -35 -14 -70 -26 -78 -27 -9 -2
-23 23 -41 74 l-28 77 91 3 90 3 56 80 c49 71 66 86 149 137 51 31 95 59 98
61 3 4 -161 47 -179 47 -3 0 -9 -36 -12 -81 l-7 -80 -42 47 c-51 58 -77 91
-77 97 0 2 27 7 60 11 33 4 60 9 60 11 0 6 -110 110 -121 113 -5 2 -9 -26 -9
-63z m20 -301 l0 -76 -60 52 c-34 29 -58 55 -55 59 9 9 88 40 103 40 8 1 12
-21 12 -75z"/>
<path d="M2225 2968 c11 -85 13 -85 93 -21 l71 58 -37 7 c-20 4 -59 7 -85 7
l-49 1 7 -52z"/>
<path d="M2620 2926 c0 -38 4 -66 10 -66 17 0 150 92 145 100 -3 4 -24 10 -47
14 -24 4 -58 9 -75 12 l-33 6 0 -66z"/>
<path d="M5593 2976 c-23 -6 -45 -14 -48 -18 -4 -3 23 -37 59 -75 l65 -68 1
40 0 39 40 -39 40 -39 0 86 0 86 -57 -1 c-32 0 -77 -5 -100 -11z"/>
<path d="M2980 2928 c0 -24 -3 -53 -6 -65 -4 -16 -2 -23 7 -23 18 0 162 80
156 86 -4 4 -141 44 -152 44 -3 0 -5 -19 -5 -42z"/>
<path d="M5111 2893 l-55 -35 80 -44 c88 -49 99 -52 89 -26 -4 9 -16 45 -28
80 -11 34 -23 62 -26 61 -4 0 -30 -16 -60 -36z"/>
<path d="M1640 2866 c-36 -6 -65 -15 -65 -21 0 -16 38 -115 45 -115 3 0 32 34
63 75 64 83 65 80 -43 61z"/>
<path d="M7683 2798 l-83 -83 0 -58 0 -57 56 0 55 0 20 46 c23 51 42 156 37
204 l-3 31 -82 -83z"/>
<path d="M4212 2770 l-33 -60 53 1 c29 0 73 4 97 7 l45 7 -59 53 c-32 28 -62
52 -65 52 -3 0 -20 -27 -38 -60z"/>
<path d="M3041 2753 c-17 -88 -21 -86 77 -52 48 17 89 33 91 35 2 2 -7 8 -20
13 -13 5 -49 21 -80 34 l-57 26 -11 -56z"/>
<path d="M4445 2754 c-19 -26 -35 -50 -35 -53 0 -7 172 -33 178 -26 6 5 -89
125 -99 125 -4 0 -24 -21 -44 -46z"/>
<path d="M5802 2782 l-53 -17 71 -70 70 -69 0 71 c0 78 -6 103 -24 102 -6 0
-35 -8 -64 -17z"/>
<path d="M1900 2723 c-35 -13 -65 -25 -66 -26 -3 -2 60 -105 69 -113 4 -5 87
148 87 160 0 10 -22 5 -90 -21z"/>
<path d="M2786 2678 c-3 -34 -4 -63 -2 -65 5 -5 166 61 166 68 0 7 -133 59
-149 59 -5 0 -11 -28 -15 -62z"/>
<path d="M7770 2715 c0 -4 15 -28 33 -54 57 -79 58 -74 -21 -69 l-70 5 -56
-88 c-30 -49 -50 -89 -43 -89 7 0 44 9 82 18 64 17 73 22 108 68 33 43 59 98
81 171 8 24 2 27 -71 38 -24 4 -43 4 -43 0z"/>
<path d="M4220 2615 c-19 -25 -36 -49 -38 -54 -1 -4 23 -11 55 -14 32 -4 76
-10 98 -14 l40 -6 -51 63 c-28 35 -55 65 -60 67 -5 1 -25 -18 -44 -42z"/>
<path d="M5391 2624 l-54 -25 74 -54 c41 -30 78 -54 83 -55 4 0 6 10 3 23 -3
12 -11 48 -17 80 -6 32 -17 57 -23 56 -7 0 -36 -12 -66 -25z"/>
<path d="M5572 2591 c-24 -9 -43 -20 -42 -26 2 -11 120 -115 130 -115 3 0 3
26 -1 58 -4 31 -8 67 -8 80 -1 26 -17 27 -79 3z"/>
<path d="M6117 2590 c-20 -4 -39 -9 -42 -12 -3 -3 21 -37 52 -76 l58 -71 7 37
c4 20 7 58 7 85 1 52 -1 53 -82 37z"/>
<path d="M8016 2576 c-3 -12 -6 -45 -6 -75 0 -49 -6 -63 -51 -133 -28 -43 -54
-78 -58 -78 -3 0 -16 27 -29 60 -17 43 -32 65 -56 80 -19 11 -36 20 -38 20 -3
0 -8 -35 -12 -77 -3 -42 -7 -77 -9 -78 -1 -1 -36 -29 -77 -62 -61 -50 -89 -65
-152 -84 -43 -12 -78 -25 -77 -28 0 -3 23 -24 52 -47 37 -28 72 -46 119 -57
37 -9 69 -17 72 -17 3 0 19 26 37 59 26 48 42 64 91 90 56 31 62 32 133 26 84
-8 79 -13 88 85 3 35 18 67 60 130 55 83 86 165 70 180 -4 5 -40 12 -80 17
-68 9 -72 8 -77 -11z"/>
<path d="M1418 2518 c-38 -17 -68 -34 -68 -38 0 -10 71 -100 79 -100 4 0 20
35 36 77 17 42 32 80 33 85 6 13 -9 9 -80 -24z"/>
<path d="M2490 2372 l0 -71 80 47 c44 26 80 50 80 53 0 3 -30 11 -67 19 -38 7
-74 15 -80 18 -10 3 -13 -14 -13 -66z"/>
<path d="M3988 2402 c-26 -20 -47 -40 -47 -44 -1 -9 160 -71 166 -64 6 6 -58
146 -66 145 -3 0 -27 -17 -53 -37z"/>
<path d="M3518 2397 c-26 -18 -48 -35 -48 -38 0 -8 161 -81 167 -76 7 8 -52
147 -62 146 -5 0 -31 -15 -57 -32z"/>
<path d="M4388 2379 c-27 -17 -48 -34 -48 -38 0 -7 145 -81 159 -81 11 0 -43
143 -55 147 -5 1 -30 -11 -56 -28z"/>
<path d="M7511 2347 l-74 -62 61 -9 c87 -12 92 -9 92 69 0 36 -1 65 -2 64 -2
0 -36 -28 -77 -62z"/>
<path d="M4563 2362 c-29 -14 -53 -29 -53 -33 0 -9 151 -102 156 -96 6 5 -38
157 -45 156 -3 0 -30 -12 -58 -27z"/>
<path d="M6195 2385 c-5 -2 -31 -6 -58 -10 l-47 -6 56 -72 c31 -40 60 -73 65
-75 5 -2 9 14 9 36 0 21 3 60 6 86 7 46 2 52 -31 41z"/>
<path d="M5752 2358 l-43 -9 43 -51 c24 -28 53 -62 65 -77 l22 -26 1 56 c0 31
3 71 6 88 6 29 5 31 -22 30 -16 -1 -48 -5 -72 -11z"/>
<path d="M3693 2256 c-28 -12 -55 -24 -58 -28 -4 -3 26 -32 65 -63 39 -32 72
-56 74 -54 5 5 -18 156 -24 162 -3 2 -28 -6 -57 -17z"/>
<path d="M7017 2273 c-3 -4 -10 -34 -18 -66 -7 -32 -15 -60 -19 -62 -4 -2 -31
25 -60 60 -30 36 -55 65 -57 65 -2 0 -1 -27 3 -60 8 -69 13 -66 -94 -46 -62
12 -80 20 -126 60 -58 49 -66 47 -66 -15 0 -29 -1 -29 -27 -16 -56 29 -69 29
-81 1 l-12 -25 55 6 c64 8 62 13 44 -110 -6 -42 -10 -78 -7 -80 2 -2 31 2 63
10 55 13 67 12 139 -6 l79 -20 90 36 c78 31 207 115 207 134 0 13 -109 141
-113 134z m-328 -135 c0 -24 -3 -61 -7 -83 l-7 -39 -44 74 c-24 41 -46 78 -48
83 -2 4 21 7 51 7 l56 0 -1 -42z"/>
<path d="M1341 2229 c-36 -16 -67 -31 -69 -34 -5 -5 67 -105 76 -105 6 0 38
74 68 153 8 23 0 21 -75 -14z"/>
<path d="M2430 2190 c0 -38 2 -70 5 -70 2 0 41 24 87 52 l82 53 -51 11 c-28 6
-67 14 -87 18 l-36 7 0 -71z"/>
<path d="M3145 2207 c-33 -5 -62 -10 -63 -12 -2 -2 22 -36 54 -75 54 -67 58
-71 66 -49 5 13 8 50 6 84 l-3 60 -60 -8z"/>
<path d="M4050 2191 l-55 -29 80 -51 c44 -28 81 -48 82 -43 5 14 -33 146 -42
148 -6 2 -35 -10 -65 -25z"/>
<path d="M4832 2007 c23 -48 45 -83 49 -79 9 9 51 143 47 148 -2 1 -34 6 -71
10 l-68 7 43 -86z"/>
<path d="M1796 2011 c-33 -33 -58 -62 -55 -64 21 -17 112 -67 115 -64 3 3 3
46 2 96 l-3 92 -59 -60z"/>
<path d="M7967 2004 l-48 -15 20 -27 c24 -34 80 -87 85 -81 2 2 7 34 11 72 7
76 9 75 -68 51z"/>
<path d="M2648 1971 c-32 -14 -58 -29 -58 -32 0 -5 145 -109 153 -109 4 0 -29
160 -35 164 -1 2 -29 -9 -60 -23z"/>
<path d="M7629 1923 l-64 -68 64 -3 c90 -4 93 -2 85 60 -11 85 -14 85 -85 11z"/>
<path d="M6491 1913 c-38 -48 -42 -57 -27 -65 9 -5 16 -15 16 -21 0 -7 20 -33
45 -57 l45 -44 0 34 c0 51 -22 210 -29 209 -3 0 -26 -25 -50 -56z"/>
<path d="M3872 1928 l-43 -9 63 -71 63 -71 6 29 c4 16 7 53 8 82 1 51 0 52
-26 51 -16 -1 -47 -5 -71 -11z"/>
<path d="M1715 1863 c-33 -19 -63 -38 -67 -42 -5 -4 14 -28 41 -55 l48 -47 27
84 c14 47 26 88 26 91 0 11 -14 5 -75 -31z"/>
<path d="M6745 1875 c-33 -9 -60 -25 -80 -48 -16 -18 -44 -49 -62 -69 -29 -33
-35 -36 -72 -31 l-41 6 0 -44 c1 -29 9 -58 25 -83 17 -29 21 -43 14 -53 -8 -8
-8 -21 -1 -40 10 -27 10 -27 11 11 l1 39 66 -6 c37 -4 69 -9 72 -12 3 -3 -22
-34 -57 -69 l-63 -63 17 -84 c9 -46 18 -85 20 -87 1 -2 34 4 73 13 l71 16 3
87 3 86 60 -82 c33 -45 63 -81 66 -82 3 0 10 33 15 73 9 67 8 78 -20 155 -16
45 -26 85 -23 89 4 3 43 -4 89 -15 45 -12 84 -20 85 -18 2 1 -5 43 -14 93
l-16 90 -123 -4 c-68 -2 -124 0 -124 3 0 4 20 35 45 70 25 34 45 65 45 68 0 9
-30 6 -85 -9z"/>
<path d="M5256 1858 c4 -7 27 -46 53 -87 l45 -74 18 79 c9 43 18 82 18 87 0 4
-32 7 -71 7 -53 0 -68 -3 -63 -12z"/>
<path d="M3661 1790 c17 -40 29 -74 27 -76 -3 -2 -19 1 -38 6 -19 5 -35 8 -36
7 -2 -2 37 -146 50 -182 2 -5 21 25 42 68 29 58 36 80 26 86 -9 5 -6 22 13 69
14 34 25 64 25 66 0 5 -29 11 -97 21 l-42 7 30 -72z"/>
<path d="M1456 1687 c8 -72 12 -83 27 -68 19 19 26 12 20 -24 -3 -19 -2 -35 2
-35 3 0 42 19 86 43 75 40 95 57 67 57 -7 0 -31 5 -52 11 l-39 11 29 23 29 23
-60 6 c-33 4 -73 9 -88 11 l-28 5 7 -63z"/>
<path d="M6058 1716 c-32 -11 -58 -24 -58 -27 0 -7 134 -119 142 -119 5 0 -16
157 -22 163 -3 2 -31 -5 -62 -17z"/>
<path d="M1944 1670 c13 -97 13 -97 91 -26 l69 63 -54 6 c-30 4 -68 7 -84 7
-29 0 -29 0 -22 -50z"/>
<path d="M5170 1704 c0 -3 18 -36 40 -74 45 -77 48 -90 21 -90 -11 0 -22 -4
-25 -9 -5 -8 97 -133 115 -139 5 -2 9 32 9 80 l0 85 -30 -5 c-34 -5 -34 -14
-5 100 7 26 10 50 7 53 -7 7 -132 6 -132 -1z"/>
<path d="M2413 1658 c-29 -11 -53 -24 -53 -28 0 -3 29 -30 64 -59 36 -29 63
-57 61 -64 -2 -7 3 -51 13 -100 l17 -87 48 71 c26 39 47 73 45 74 -2 2 -26 12
-53 23 l-50 20 -10 82 c-5 46 -14 84 -20 86 -5 1 -34 -7 -62 -18z"/>
<path d="M861 1581 l-53 -28 65 -46 c87 -62 100 -67 91 -34 -3 15 -11 50 -18
78 -6 29 -16 54 -21 55 -6 2 -34 -9 -64 -25z"/>
<path d="M4695 1561 c3 -12 21 -53 39 -92 l33 -70 26 73 c35 94 34 98 -7 98
-18 0 -48 3 -66 6 -30 6 -32 5 -25 -15z"/>
<path d="M1078 1537 c-26 -18 -48 -34 -48 -37 0 -3 39 -25 86 -48 48 -24 84
-37 82 -30 -3 7 -16 43 -29 81 -13 37 -28 67 -34 66 -5 0 -31 -15 -57 -32z"/>
<path d="M3068 1467 c-31 -39 -56 -73 -54 -75 4 -3 157 16 162 21 4 4 -41 127
-46 126 -3 0 -31 -32 -62 -72z"/>
<path d="M2736 1512 c-10 -16 -67 -165 -64 -167 5 -5 148 63 148 70 0 12 -79
105 -84 97z"/>
<path d="M4332 1498 c-61 -24 -61 -24 40 -104 l60 -47 -5 29 c-4 16 -9 55 -13
87 -4 33 -11 57 -18 56 -6 0 -35 -10 -64 -21z"/>
<path d="M5083 1513 c-29 -2 -53 -8 -53 -14 0 -5 24 -41 52 -79 59 -79 61 -78
72 33 5 52 4 67 -6 65 -7 -1 -37 -3 -65 -5z"/>
<path d="M5676 1469 l-59 -31 74 -47 c102 -65 103 -65 97 -55 -3 5 -13 44 -22
87 -10 42 -20 77 -24 77 -4 -1 -33 -15 -66 -31z"/>
<path d="M4858 1463 c-27 -2 -48 -6 -48 -9 0 -9 104 -153 111 -153 4 -1 10 31
13 70 4 39 10 77 13 85 4 10 -2 13 -18 12 -13 -1 -45 -3 -71 -5z"/>
<path d="M2147 1437 l-59 -23 77 -63 78 -63 -7 58 c-9 81 -16 114 -24 113 -4
0 -33 -10 -65 -22z"/>
<path d="M4266 1336 l-58 -33 84 -50 c45 -28 84 -50 85 -49 4 3 -39 151 -46
158 -3 4 -32 -8 -65 -26z"/>
<path d="M5262 1332 c-29 -14 -51 -30 -49 -35 2 -8 150 -107 154 -103 2 2 -8
45 -28 129 -6 20 -13 37 -17 36 -4 0 -31 -12 -60 -27z"/>
<path d="M1500 1344 c0 -4 19 -42 42 -85 26 -49 45 -75 49 -67 4 7 15 42 25
76 15 54 15 65 3 73 -16 10 -119 12 -119 3z"/>
<path d="M6133 1302 c-29 -14 -53 -29 -53 -32 0 -6 40 -32 114 -75 l49 -29 -7
30 c-18 74 -38 134 -44 133 -4 0 -31 -12 -59 -27z"/>
<path d="M2170 1253 c0 -10 28 -93 50 -148 l12 -30 28 62 c46 102 47 99 -2
107 -24 4 -53 9 -65 13 -13 3 -23 1 -23 -4z"/>
<path d="M922 1105 c23 -47 45 -81 49 -77 4 4 16 39 27 79 l20 71 -22 6 c-11
3 -42 6 -68 6 l-48 0 42 -85z"/>
<path d="M4745 1154 c-27 -19 -51 -38 -52 -42 -2 -7 157 -85 163 -79 4 4 -46
139 -55 149 -3 3 -28 -9 -56 -28z"/>
<path d="M6042 1126 c-39 -25 -49 -36 -40 -43 23 -17 149 -85 153 -81 6 5 -45
158 -53 157 -4 0 -31 -15 -60 -33z"/>
<path d="M5127 1090 c-26 -21 -44 -41 -39 -43 18 -12 165 -67 168 -64 6 6 -65
147 -73 147 -4 -1 -29 -18 -56 -40z"/>
<path d="M6660 1068 c-26 -22 -27 -32 -4 -87 l14 -34 30 37 c29 37 29 38 13
72 -9 19 -19 34 -22 34 -3 -1 -17 -10 -31 -22z"/>
<path d="M1841 983 c65 -104 65 -105 79 -37 6 33 14 69 17 82 5 21 3 22 -66
22 l-71 0 41 -67z"/>
<path d="M264 1021 l-31 -6 53 -79 c32 -49 55 -74 58 -65 5 14 26 139 26 152
0 8 -62 7 -106 -2z"/>
<path d="M5606 981 l-48 -49 33 -10 c19 -6 54 -16 79 -22 25 -6 53 -13 62 -16
13 -4 5 15 -27 66 -24 40 -45 74 -48 76 -2 2 -25 -18 -51 -45z"/>
<path d="M3349 1003 c56 -105 90 -153 94 -136 6 19 20 78 31 126 l6 27 -70 0
c-64 0 -70 -2 -61 -17z"/>
<path d="M6740 1015 c0 -3 28 -43 62 -88 l62 -81 7 34 c4 19 9 51 12 71 l5 36
-56 12 c-32 7 -65 15 -74 17 -10 3 -18 3 -18 -1z"/>
<path d="M4390 945 c-24 -24 -42 -46 -39 -48 9 -7 172 -47 176 -43 6 6 -71
129 -83 133 -5 2 -29 -17 -54 -42z"/>
<path d="M7210 889 l-42 -82 27 7 c15 4 41 10 57 13 30 6 30 7 24 51 -3 25 -6
55 -6 68 0 42 -17 26 -60 -57z"/>
<path d="M1000 885 c0 -10 85 -155 91 -155 5 0 39 134 39 153 0 4 -29 7 -65 7
-36 0 -65 -2 -65 -5z"/>
<path d="M6955 859 c-95 -21 -91 -10 -34 -96 37 -54 54 -72 59 -62 8 14 25
170 18 168 -1 -1 -21 -5 -43 -10z"/>
<path d="M1844 738 c4 -35 10 -78 14 -96 l7 -34 49 71 c27 40 47 73 45 76 -5
4 -108 45 -116 45 -3 0 -2 -28 1 -62z"/>
<path d="M7147 758 c-9 -24 -17 -63 -19 -88 -3 -43 -2 -44 32 -51 26 -6 45 -2
82 17 58 30 58 30 58 -1 0 -20 5 -25 26 -25 23 0 17 9 -62 95 -49 52 -91 95
-95 95 -3 0 -13 -19 -22 -42z"/>
<path d="M550 770 c0 -5 21 -44 48 -86 l47 -77 17 69 c26 108 28 104 -47 104
-36 0 -65 -4 -65 -10z"/>
<path d="M73 747 c-35 -5 -63 -13 -63 -17 0 -5 26 -39 57 -77 l58 -67 8 59 c4
33 6 71 5 85 -3 25 -4 25 -65 17z"/>
<path d="M3481 699 l-54 -31 84 -48 c46 -27 85 -48 86 -46 7 6 -43 156 -52
156 -5 0 -34 -14 -64 -31z"/>
<path d="M6970 670 c0 -5 5 -10 11 -10 5 0 7 5 4 10 -3 6 -8 10 -11 10 -2 0
-4 -4 -4 -10z"/>
</g>
</svg>
